Spartacus Vengeance - The Greater Good - S02E03

Releaser:
r3mnants
 
http://www.shotpix.com/images/06621655559316699057.png 
http://www.shotpix.com/images/22684528467665030988.png

Format                                   : MPEG-4
Format profile                           : Base Media
Codec ID                                 : isom
File size                                : 656 MiB
Duration                                 : 51mn 33s
Overall bit rate mode                    : Variable
Overall bit rate                         : 1780 Kbps

Video
ID                                       : 1
Format                                   : AVC
Format/Info                              : Advanced Video Codec
Format profile                           : High@L4.0
Format settings, CABAC                   : Yes
Format settings, ReFrames                : 3 frames
Codec ID                                 : avc1
Codec ID/Info                            : Advanced Video Coding
Duration                                 : 51mn 33s
Bit rate mode                            : Variable
Bit rate                                 : 1 648 Kbps
Maximum bit rate                         : 25.0 Mbps
Width                                    : 1280 pixels
Height                                   : 720 pixels
Display aspect ratio                     : 16:9
Frame rate mode                          : Constant
Frame rate                               : 29.970 fps
Color space                              : YUV
Chroma subsampling                       : 4:2:0
Bit depth                                : 8 bits
Scan type                                : Progressive
Bits/(Pixel*Frame)                       : 0.060
Stream size                              : 608 MiB (93%)
Writing library                          : x264 core 120 r2120 0c7dab9

Audio
ID                                       : 2
Format                                   : AAC
Format/Info                              : Advanced Audio Codec
Format profile                           : LC
Codec ID                                 : 40
Duration                                 : 51mn 33s
Bit rate mode                            : Variable
Bit rate                                 : 128 Kbps
Maximum bit rate                         : 152 Kbps
Channel(s)                               : 2 channels
Channel positions                        : Front: L R
Sampling rate                            : 48.0 KHz
Compression mode                         : Lossy
Stream size                              : 47.2 MiB (7%)